<svg xmlns="http://www.w3.org/2000/svg" viewBox="0 0 128 128">
  <defs>
    <linearGradient id="g" x1="0%" y1="0%" x2="0%" y2="100%">
      <stop offset="0%" stop-color="#f7931a"/>
      <stop offset="100%" stop-color="#c4730b"/>
    </linearGradient>
  </defs>
  <circle cx="64" cy="64" r="60" fill="url(#g)" />
  <path fill="#fff" d="M79.8 55.4c2.4-1.6 3.9-4.2 3.9-7.4 0-7.2-5.9-11.1-14.7-11.7V28H61v8.1h-6.1V28h-7.1v8.4H40v7.2h4.7v28.9H40v7.2h7.8V92h7.1v-8.3h6.1V92h7.9v-8.7c9.5-.6 15.7-5.1 15.7-13.6 0-5.4-2.8-9.2-7.7-11.1zM57.2 40.9h8.1c4.7 0 7.5 2.2 7.5 5.8 0 3.8-2.9 5.6-8.2 5.6h-7.4V40.9zm8.7 32.4h-8.7V59.6h8.8c5.7 0 8.7 2.4 8.7 6.7 0 4.5-3.1 7-8.8 7z"/>
</svg>
